<mxfile host="app.diagrams.net" modified="2021-03-20T14:54:37.521Z" agent="5.0 (Windows NT 10.0; Win64; x64) AppleWebKit/537.36 (KHTML, like Gecko) Chrome/89.0.4389.82 Safari/537.36" etag="yiDLaUqO7B29LeHsX_zZ" version="14.4.8" type="github">
  <diagram id="IPUmBDAsLNvW5vg5e5uW" name="第 1 页">
    <mxGraphModel dx="1422" dy="706" grid="0" gridSize="10" guides="1" tooltips="1" connect="1" arrows="1" fold="1" page="1" pageScale="1" pageWidth="827" pageHeight="1169" math="0" shadow="1">
      <root>
        <mxCell id="0" />
        <mxCell id="1" parent="0" />
        <mxCell id="AC3FZroCjYtWYzpucI6C-62" style="edgeStyle=orthogonalEdgeStyle;rounded=0;orthogonalLoop=1;jettySize=auto;html=1;exitX=1;exitY=0.5;exitDx=0;exitDy=0;entryX=0;entryY=0.5;entryDx=0;entryDy=0;" edge="1" parent="1" source="AC3FZroCjYtWYzpucI6C-19" target="AC3FZroCjYtWYzpucI6C-24">
          <mxGeometry relative="1" as="geometry" />
        </mxCell>
        <mxCell id="AC3FZroCjYtWYzpucI6C-19" value="&lt;font style=&quot;font-size: 14px&quot;&gt;&lt;b&gt;头指针&lt;/b&gt;&lt;/font&gt;" style="rounded=1;whiteSpace=wrap;html=1;fillColor=#d5e8d4;strokeColor=#82b366;" vertex="1" parent="1">
          <mxGeometry x="40" y="200" width="80" height="40" as="geometry" />
        </mxCell>
        <mxCell id="AC3FZroCjYtWYzpucI6C-20" value="&lt;font style=&quot;font-size: 14px&quot;&gt;&lt;b&gt;前驱&lt;/b&gt;&lt;/font&gt;" style="rounded=1;whiteSpace=wrap;html=1;fillColor=#647687;strokeColor=#314354;fontColor=#ffffff;" vertex="1" parent="1">
          <mxGeometry x="159" y="160" width="80" height="40" as="geometry" />
        </mxCell>
        <mxCell id="AC3FZroCjYtWYzpucI6C-40" value="" style="group" vertex="1" connectable="0" parent="1">
          <mxGeometry x="159" y="160" width="240" height="40" as="geometry" />
        </mxCell>
        <mxCell id="AC3FZroCjYtWYzpucI6C-21" value="&lt;font style=&quot;font-size: 14px&quot;&gt;&lt;b&gt;数据&lt;/b&gt;&lt;/font&gt;" style="rounded=1;whiteSpace=wrap;html=1;fillColor=#647687;strokeColor=#314354;fontColor=#ffffff;" vertex="1" parent="AC3FZroCjYtWYzpucI6C-40">
          <mxGeometry x="80" width="80" height="40" as="geometry" />
        </mxCell>
        <mxCell id="AC3FZroCjYtWYzpucI6C-23" value="&lt;font style=&quot;font-size: 14px&quot;&gt;&lt;b&gt;后继&lt;/b&gt;&lt;/font&gt;" style="rounded=1;whiteSpace=wrap;html=1;fillColor=#647687;strokeColor=#314354;fontColor=#ffffff;" vertex="1" parent="AC3FZroCjYtWYzpucI6C-40">
          <mxGeometry x="160" width="80" height="40" as="geometry" />
        </mxCell>
        <mxCell id="AC3FZroCjYtWYzpucI6C-24" value="&lt;font style=&quot;font-size: 14px&quot;&gt;&lt;b&gt;前驱&lt;/b&gt;&lt;/font&gt;" style="rounded=1;whiteSpace=wrap;html=1;fillColor=#647687;strokeColor=#314354;fontColor=#ffffff;" vertex="1" parent="AC3FZroCjYtWYzpucI6C-40">
          <mxGeometry width="80" height="40" as="geometry" />
        </mxCell>
        <mxCell id="AC3FZroCjYtWYzpucI6C-41" value="" style="group" vertex="1" connectable="0" parent="1">
          <mxGeometry x="480" y="160" width="240" height="40" as="geometry" />
        </mxCell>
        <mxCell id="AC3FZroCjYtWYzpucI6C-42" value="&lt;font style=&quot;font-size: 14px&quot;&gt;&lt;b&gt;数据&lt;/b&gt;&lt;/font&gt;" style="rounded=1;whiteSpace=wrap;html=1;fillColor=#647687;strokeColor=#314354;fontColor=#ffffff;" vertex="1" parent="AC3FZroCjYtWYzpucI6C-41">
          <mxGeometry x="80" width="80" height="40" as="geometry" />
        </mxCell>
        <mxCell id="AC3FZroCjYtWYzpucI6C-43" value="&lt;font style=&quot;font-size: 14px&quot;&gt;&lt;b&gt;后继&lt;/b&gt;&lt;/font&gt;" style="rounded=1;whiteSpace=wrap;html=1;fillColor=#647687;strokeColor=#314354;fontColor=#ffffff;" vertex="1" parent="AC3FZroCjYtWYzpucI6C-41">
          <mxGeometry x="160" width="80" height="40" as="geometry" />
        </mxCell>
        <mxCell id="AC3FZroCjYtWYzpucI6C-44" value="&lt;font style=&quot;font-size: 14px&quot;&gt;&lt;b&gt;前驱&lt;/b&gt;&lt;/font&gt;" style="rounded=1;whiteSpace=wrap;html=1;fillColor=#647687;strokeColor=#314354;fontColor=#ffffff;" vertex="1" parent="AC3FZroCjYtWYzpucI6C-41">
          <mxGeometry width="80" height="40" as="geometry" />
        </mxCell>
        <mxCell id="AC3FZroCjYtWYzpucI6C-45" value="" style="group" vertex="1" connectable="0" parent="1">
          <mxGeometry x="320" y="280" width="240" height="40" as="geometry" />
        </mxCell>
        <mxCell id="AC3FZroCjYtWYzpucI6C-46" value="&lt;font style=&quot;font-size: 14px&quot;&gt;&lt;b&gt;数据&lt;/b&gt;&lt;/font&gt;" style="rounded=1;whiteSpace=wrap;html=1;fillColor=#647687;strokeColor=#314354;fontColor=#ffffff;" vertex="1" parent="AC3FZroCjYtWYzpucI6C-45">
          <mxGeometry x="80" width="80" height="40" as="geometry" />
        </mxCell>
        <mxCell id="AC3FZroCjYtWYzpucI6C-47" value="&lt;font style=&quot;font-size: 14px&quot;&gt;&lt;b&gt;后继&lt;/b&gt;&lt;/font&gt;" style="rounded=1;whiteSpace=wrap;html=1;fillColor=#647687;strokeColor=#314354;fontColor=#ffffff;" vertex="1" parent="AC3FZroCjYtWYzpucI6C-45">
          <mxGeometry x="160" width="80" height="40" as="geometry" />
        </mxCell>
        <mxCell id="AC3FZroCjYtWYzpucI6C-48" value="&lt;font style=&quot;font-size: 14px&quot;&gt;&lt;b&gt;前驱&lt;/b&gt;&lt;/font&gt;" style="rounded=1;whiteSpace=wrap;html=1;fillColor=#647687;strokeColor=#314354;fontColor=#ffffff;" vertex="1" parent="AC3FZroCjYtWYzpucI6C-45">
          <mxGeometry width="80" height="40" as="geometry" />
        </mxCell>
        <mxCell id="AC3FZroCjYtWYzpucI6C-49" style="edgeStyle=orthogonalEdgeStyle;rounded=0;orthogonalLoop=1;jettySize=auto;html=1;exitX=0.5;exitY=0;exitDx=0;exitDy=0;entryX=0.5;entryY=0;entryDx=0;entryDy=0;" edge="1" parent="1" source="AC3FZroCjYtWYzpucI6C-23" target="AC3FZroCjYtWYzpucI6C-42">
          <mxGeometry relative="1" as="geometry" />
        </mxCell>
        <mxCell id="AC3FZroCjYtWYzpucI6C-56" value="Next" style="edgeLabel;html=1;align=center;verticalAlign=middle;resizable=0;points=[];" vertex="1" connectable="0" parent="AC3FZroCjYtWYzpucI6C-49">
          <mxGeometry x="-0.1957" relative="1" as="geometry">
            <mxPoint as="offset" />
          </mxGeometry>
        </mxCell>
        <mxCell id="AC3FZroCjYtWYzpucI6C-50" style="edgeStyle=orthogonalEdgeStyle;rounded=0;orthogonalLoop=1;jettySize=auto;html=1;exitX=0.5;exitY=1;exitDx=0;exitDy=0;entryX=0.5;entryY=1;entryDx=0;entryDy=0;" edge="1" parent="1" source="AC3FZroCjYtWYzpucI6C-43" target="AC3FZroCjYtWYzpucI6C-46">
          <mxGeometry relative="1" as="geometry" />
        </mxCell>
        <mxCell id="AC3FZroCjYtWYzpucI6C-57" value="Next" style="edgeLabel;html=1;align=center;verticalAlign=middle;resizable=0;points=[];" vertex="1" connectable="0" parent="AC3FZroCjYtWYzpucI6C-50">
          <mxGeometry x="0.155" y="-2" relative="1" as="geometry">
            <mxPoint as="offset" />
          </mxGeometry>
        </mxCell>
        <mxCell id="AC3FZroCjYtWYzpucI6C-51" style="edgeStyle=orthogonalEdgeStyle;rounded=0;orthogonalLoop=1;jettySize=auto;html=1;exitX=0.5;exitY=0;exitDx=0;exitDy=0;entryX=0.5;entryY=1;entryDx=0;entryDy=0;fillColor=#f8cecc;strokeColor=#b85450;" edge="1" parent="1" source="AC3FZroCjYtWYzpucI6C-48" target="AC3FZroCjYtWYzpucI6C-42">
          <mxGeometry relative="1" as="geometry" />
        </mxCell>
        <mxCell id="AC3FZroCjYtWYzpucI6C-61" value="Prev" style="edgeLabel;html=1;align=center;verticalAlign=middle;resizable=0;points=[];" vertex="1" connectable="0" parent="AC3FZroCjYtWYzpucI6C-51">
          <mxGeometry x="0.2125" y="-1" relative="1" as="geometry">
            <mxPoint as="offset" />
          </mxGeometry>
        </mxCell>
        <mxCell id="AC3FZroCjYtWYzpucI6C-52" style="edgeStyle=orthogonalEdgeStyle;rounded=0;orthogonalLoop=1;jettySize=auto;html=1;exitX=0.5;exitY=0;exitDx=0;exitDy=0;entryX=0.5;entryY=0;entryDx=0;entryDy=0;fillColor=#f8cecc;strokeColor=#b85450;" edge="1" parent="1" source="AC3FZroCjYtWYzpucI6C-44" target="AC3FZroCjYtWYzpucI6C-21">
          <mxGeometry relative="1" as="geometry">
            <Array as="points">
              <mxPoint x="520" y="120" />
              <mxPoint x="279" y="120" />
            </Array>
          </mxGeometry>
        </mxCell>
        <mxCell id="AC3FZroCjYtWYzpucI6C-60" value="Prev" style="edgeLabel;html=1;align=center;verticalAlign=middle;resizable=0;points=[];" vertex="1" connectable="0" parent="AC3FZroCjYtWYzpucI6C-52">
          <mxGeometry x="-0.4517" relative="1" as="geometry">
            <mxPoint as="offset" />
          </mxGeometry>
        </mxCell>
        <mxCell id="AC3FZroCjYtWYzpucI6C-54" style="edgeStyle=orthogonalEdgeStyle;rounded=0;orthogonalLoop=1;jettySize=auto;html=1;exitX=0.5;exitY=1;exitDx=0;exitDy=0;" edge="1" parent="1" source="AC3FZroCjYtWYzpucI6C-47" target="AC3FZroCjYtWYzpucI6C-21">
          <mxGeometry relative="1" as="geometry">
            <Array as="points">
              <mxPoint x="520" y="360" />
              <mxPoint x="279" y="360" />
            </Array>
          </mxGeometry>
        </mxCell>
        <mxCell id="AC3FZroCjYtWYzpucI6C-58" value="Next" style="edgeLabel;html=1;align=center;verticalAlign=middle;resizable=0;points=[];" vertex="1" connectable="0" parent="AC3FZroCjYtWYzpucI6C-54">
          <mxGeometry x="0.2245" y="-1" relative="1" as="geometry">
            <mxPoint as="offset" />
          </mxGeometry>
        </mxCell>
        <mxCell id="AC3FZroCjYtWYzpucI6C-55" style="edgeStyle=orthogonalEdgeStyle;rounded=0;orthogonalLoop=1;jettySize=auto;html=1;exitX=0.5;exitY=1;exitDx=0;exitDy=0;entryX=0.425;entryY=0;entryDx=0;entryDy=0;entryPerimeter=0;fillColor=#f8cecc;strokeColor=#b85450;" edge="1" parent="1" source="AC3FZroCjYtWYzpucI6C-24" target="AC3FZroCjYtWYzpucI6C-46">
          <mxGeometry relative="1" as="geometry">
            <Array as="points">
              <mxPoint x="199" y="220" />
              <mxPoint x="434" y="220" />
            </Array>
          </mxGeometry>
        </mxCell>
        <mxCell id="AC3FZroCjYtWYzpucI6C-59" value="Prev" style="edgeLabel;html=1;align=center;verticalAlign=middle;resizable=0;points=[];" vertex="1" connectable="0" parent="AC3FZroCjYtWYzpucI6C-55">
          <mxGeometry x="0.0413" y="3" relative="1" as="geometry">
            <mxPoint as="offset" />
          </mxGeometry>
        </mxCell>
      </root>
    </mxGraphModel>
  </diagram>
</mxfile>
